<?xml version="1.0" encoding="utf-8"?>
<!-- Generator: Adobe Illustrator 27.0.0, SVG Export Plug-In . SVG Version: 6.00 Build 0)  -->
<svg version="1.1" id="Layer_1" xmlns="http://www.w3.org/2000/svg" xmlns:xlink="http://www.w3.org/1999/xlink" x="0px" y="0px"
	 viewBox="0 0 1255.92 433.2" style="enable-background:new 0 0 1255.92 433.2;" xml:space="preserve">
<style type="text/css">
	.st0{fill:none;}
	.st1{fill:#6D499E;}
</style>
<g>
	<path class="st0" d="M0,433.2C0,288.8,0,144.4,0,0c418.64,0,837.28,0,1255.92,0c0,144.4,0,288.8,0,433.2
		C837.28,433.2,418.64,433.2,0,433.2z M195.09,250.58c0-4.91,0-9.38,0-13.85c0-4.48,0-8.95,0-13.43c0-4.4,0-8.79,0-13.19
		c0-4.48,0-8.95,0-13.43s0-8.95,0-13.43s0-8.95,0-13.43c0-4.48,0-8.95,0-13.43c0-4.48,0-8.95,0-13.43c0-4.4,0-8.79,0-13.19
		c0-4.48,0-8.95,0-13.43c0-4.48,0.04-8.95-0.01-13.43c-0.05-4.44,0.23-8.9-0.18-13.39c-16.37,0-32.49,0-48.57,0
		c-0.54,2.25-0.53,2.52,0.21,4.43c3.73,0,7.55,0,11.58,0c0.08,1.29,0.22,2.39,0.22,3.48c0.01,11.83,0.01,23.66,0.01,35.49
		c0,5.52,0.01,11.03-0.01,16.55c0,0.81,0.26,1.74-0.67,2.53c-0.32-0.44-0.62-0.8-0.85-1.19c-2.99-5.19-7.41-8.72-12.84-11.07
		c-4.59-1.98-9.35-3.16-14.35-3.52c-12.49-0.91-23.52,2.57-33.02,10.77c-11.16,9.63-16.7,22.16-18.71,36.47
		c-1.07,7.62-1.26,15.27-0.57,22.95c0.62,6.88,1.83,13.62,4.43,20.04c5.69,14.07,15.42,24.19,29.85,29.25
		c9.95,3.49,20.14,3,30.24,0.44c6.6-1.67,12.04-5.09,15.48-11.2c0.09-0.16,0.36-0.22,0.72-0.42c0.84,3.51-0.28,7.06,0.66,10.38
		c16.24,0,32.28,0,48.4,0c0-1.46,0-2.75,0-4.32C203.07,250.58,199.26,250.58,195.09,250.58z M705.75,257.3
		c0.1-0.69,0.24-1.3,0.26-1.92c0.05-1.94-0.05-2.05-2.01-2.47c-2.23-0.48-4.22-1.46-5.98-2.91c-2.26-1.86-4.08-4.11-5.36-6.7
		c-1.83-3.72-3.62-7.49-5.05-11.37c-1.8-4.86-3.17-9.88-4.82-14.8c-2.14-6.41-5.02-12.45-9.39-17.68
		c-5.49-6.57-12.42-10.42-21.07-10.93c-0.64-0.04-1.31-0.04-1.89-0.25c-0.35-0.13-0.76-0.64-0.76-0.98c0-0.36,0.39-0.94,0.71-1.03
		c0.76-0.21,1.58-0.2,2.37-0.23c4.92-0.19,9.71-1.05,14.24-2.99c10.31-4.41,17.54-11.58,19.84-22.92c0.77-3.78,0.83-7.59,0.35-11.45
		c-0.85-6.84-3.53-12.73-8.47-17.56c-4.8-4.69-10.65-7.57-16.94-9.63c-10.67-3.48-21.72-4.63-32.86-4.72
		c-22.23-0.17-44.47-0.06-66.7-0.06c-0.78,0-1.55,0.08-2.44,0.13c0,1.49,0,2.78,0,4.26c4.08,0.06,7.95,0.12,11.74,0.18
		c0.5,3.34,0.36,127.24-0.18,129.37c-3.77,0-7.64,0-11.42,0c-0.49,2.51-0.49,2.51,0.16,4.25c20.19,0,40.38,0,60.65,0
		c0-1.46,0-2.75,0-4.3c-2.12,0-4.03,0.05-5.93-0.01c-1.96-0.07-3.96,0.31-5.85-0.26c-0.63-2.58-0.54-58.02,0.11-60.02
		c0.4-0.07,0.87-0.23,1.33-0.22c3.84,0.04,7.68-0.02,11.51,0.21c4.69,0.27,8.43,2.51,10.95,6.43c1.32,2.05,2.39,4.36,3.13,6.69
		c1.18,3.72,2.08,7.54,2.91,11.36c1.26,5.79,2.73,11.49,5.2,16.91c5.56,12.18,14.59,20.18,27.74,23.33
		c4.99,1.2,10.04,2.08,15.15,2.24C693.12,257.45,699.27,257.3,705.75,257.3z M279.16,121.2c0.53,3.61,0.37,127.39-0.15,129.29
		c-3.87,0.38-7.85-0.18-11.75,0.31c0,1.55,0,2.84,0,4.27c1.2,0,2.15,0,3.11,0c25.35,0,50.71,0,76.06,0c6.89,0,13.74-0.58,20.49-1.94
		c7.19-1.45,14.04-3.79,20.09-8.08c5.54-3.93,9.41-9.07,11.21-15.66c1.33-4.84,1.56-9.73,1.02-14.73c-1.04-9.6-5.2-17.34-13.08-23
		c-7.14-5.14-15.18-7.71-23.91-8.29c-1.35-0.09-2.72-0.14-4.05-0.34c-0.29-0.04-0.62-0.65-0.68-1.03c-0.03-0.21,0.44-0.62,0.75-0.72
		c0.44-0.15,0.95-0.07,1.42-0.13c2.3-0.3,4.64-0.41,6.88-0.95c11.05-2.65,18.33-9.34,21.33-20.4c0.97-3.58,1.02-7.26,0.78-10.95
		c-0.45-6.91-3.15-12.81-7.99-17.74c-4.82-4.91-10.71-8.01-17.2-10.1c-9.14-2.94-18.6-4.11-28.12-4.2
		c-22.15-0.21-44.31-0.1-66.46-0.11c-0.54,0-1.07,0.11-1.69,0.18c0,1.44,0,2.73,0,4.3C271.31,121.2,275.19,121.2,279.16,121.2z
		 M1168.14,114.4c-0.47,2.01-0.7,3.76-1.3,5.38c-0.95,2.56-2.93,3.54-5.53,2.89c-2.32-0.58-4.64-1.22-6.9-2
		c-8.94-3.06-17.99-5.6-27.5-6.15c-6.07-0.35-12.17-0.73-18.13,0.77c-14.28,3.59-24.87,11.69-30.59,25.54
		c-1.9,4.61-2.81,9.47-3.28,14.43c-1.03,10.62,1.79,19.92,9.37,27.62c3.17,3.22,6.8,5.84,10.75,7.98c5.48,2.96,11,5.86,16.61,8.56
		c8.93,4.3,17.95,8.39,26.91,12.6c3.85,1.81,7.43,4.04,10.65,6.86c10.6,9.29,6.6,23.65-0.19,29.52c-4.19,3.63-9.09,5.23-14.51,5.45
		c-4.98,0.21-9.89-0.39-14.76-1.42c-21.85-4.61-42.57-24.84-44.03-50.14c-0.08-1.47-0.33-2.94-0.49-4.31c-1.48,0-2.64,0-3.75,0
		c-0.58,2.81-0.46,55.08,0.13,56.96c1.13,0,2.3,0,3.66,0c0.2-1.06,0.37-2.06,0.58-3.06c0.73-3.55,2.98-5.71,6.53-6.49
		c2.03-0.44,4.01-0.34,5.89,0.41c2.88,1.16,5.75,2.4,8.53,3.78c15.61,7.7,31.97,10.91,49.3,8.35c6.46-0.95,12.58-2.92,18.27-6.21
		c16.87-9.76,21.22-28.99,19.66-43.82c-0.62-5.93-3.24-11.16-6.19-16.22c-0.71-1.22-1.66-2.39-2.72-3.32
		c-5.05-4.41-10-9.01-16.19-11.86c-10.3-4.75-20.58-9.54-30.96-14.11c-6.66-2.94-13.3-5.86-19.34-10
		c-7.27-4.98-10.12-14.65-6.41-22.68c3.08-6.65,8.41-10.42,15.73-10.84c3.96-0.23,8,0,11.95,0.46c8.25,0.96,15.8,3.87,22.46,8.91
		c8.41,6.37,13.69,14.63,15.04,25.21c0.23,1.8,0.39,3.61,0.59,5.46c1.46,0,2.76,0,4.03,0c0.46-3.27,0.32-42.71-0.16-44.53
		C1170.65,114.4,1169.4,114.4,1168.14,114.4z M1012.73,250.62c-0.71-2.43-0.71-127-0.07-129.23c0.35-0.06,0.74-0.19,1.13-0.18
		c4.08,0.02,8.18-0.21,12.23,0.16c4.04,0.36,8.09,1.06,12.01,2.08c7.69,2,12.46,7.08,14.58,14.74c1.57,5.67,2.16,11.44,2.36,17.29
		c0.03,0.85,0.09,1.7,0.14,2.65c1.49,0,2.73,0,3.94,0c0.6-2.25,0.55-39.39-0.01-41.19c-3.62-0.52-128.48-0.31-130.12,0.22
		c-0.47,3.71-0.28,39.19,0.24,40.94c1.22,0,2.46,0,3.99,0c0.05-1.9,0.07-3.64,0.14-5.38c0.21-5.21,0.94-10.33,2.46-15.33
		c2.14-7.04,6.7-11.66,13.75-13.81c1.07-0.33,2.14-0.63,3.23-0.9c7.23-1.78,14.59-1.54,21.95-1.4c0.21,0,0.41,0.2,0.82,0.4
		c0.04,1.1,0.13,2.29,0.13,3.47c0.01,33.42,0.01,66.84,0.01,100.26c0,7.36,0.01,14.71-0.01,22.07c0,0.99-0.19,1.98-0.31,3.18
		c-5.75,0-11.24,0-16.74,0c-0.58,1.59-0.68,2.94-0.02,4.27c5.35,0.55,69.29,0.29,70.95-0.29c0-1.23,0-2.47,0-3.99
		C1023.76,250.62,1018.2,250.62,1012.73,250.62z M769.47,250.45c-0.53-3.16-0.4-127.18,0.18-129.29c4.64,0,9.39,0,14.18,0
		c0-1.65,0-2.95,0-4.28c-0.5-0.08-0.81-0.16-1.12-0.16c-20.39-0.01-40.78-0.01-61.17,0c-0.31,0-0.63,0.08-0.94,0.13
		c-0.07,0.01-0.13,0.08-0.19,0.13c-0.06,0.05-0.11,0.12-0.19,0.2c0,1.21,0,2.45,0,3.87c4.09,0.39,8.07-0.15,11.94,0.32
		c0.14,0.45,0.27,0.67,0.27,0.89c0.02,42.12,0.03,84.25,0.04,126.37c0,0.47-0.09,0.95-0.16,1.42c-0.01,0.07-0.09,0.12-0.14,0.18
		c-0.05,0.06-0.11,0.12-0.43,0.45c-3.61,0-7.49,0-11.49,0c0,1.58,0,2.87,0,4.13c3.08,0.47,113.94,0.34,115.87-0.16
		c0.04-0.87,0.12-1.81,0.12-2.75c0.01-13.43,0.01-26.86,0-40.28c0-3.24-0.41-3.59-3.61-3.1c-0.22,0.03-0.42,0.21-0.72,0.36
		c-0.19,2.91-0.35,5.85-0.59,8.79c-0.46,5.76-1.47,11.4-3.75,16.75c-2.01,4.71-5.15,8.33-9.59,10.99
		c-5.95,3.57-12.42,5.01-19.22,5.11c-9.03,0.14-18.07,0.07-27.1,0.08C770.97,250.6,770.27,250.51,769.47,250.45z M416.18,250.6
		c0.33-1.05,0.5-1.73,0.76-2.37c4.24-10.17,8.51-20.33,12.71-30.52c0.6-1.46,1.36-2.06,2.99-2.06c15.43,0.06,30.86,0.05,46.3,0.01
		c1.48,0,2.32,0.49,2.96,1.83c4.95,10.38,9.97,20.73,14.94,31.1c0.25,0.53,0.35,1.13,0.63,2.08c-4.93,0-9.52,0-14.23,0
		c0,1.61,0,2.9,0,4.16c3.38,0.47,62.66,0.32,64.39-0.14c0-1.29,0-2.58,0-4.08c-1.02,0-1.81,0-2.6,0c-2.4,0-4.8-0.06-7.2,0.02
		c-1.29,0.04-2.13-0.34-2.59-1.6c-0.35-0.97-0.86-1.89-1.29-2.83c-19.9-43.06-39.8-86.13-59.7-129.19c-0.4-0.86-0.84-1.71-1.35-2.73
		c-1.05,0-2.08-0.01-3.11,0c-2.96,0.03-2.61-0.27-3.79,2.56c-12.28,29.48-24.57,58.96-36.86,88.45c-5.99,14.37-12,28.74-17.92,43.14
		c-0.69,1.68-1.6,2.27-3.38,2.22c-3.91-0.12-7.84-0.04-11.75-0.03c-0.69,0-1.39,0.1-2.19,0.17c0,1.48,0,2.77,0,4.03
		c3.41,0.51,39.89,0.34,41.55-0.16c0-1.24,0-2.48,0-4.05C429.05,250.6,422.78,250.6,416.18,250.6z M850.64,254.91
		c20.48,0,40.67,0,60.98,0c0-1.45,0-2.74,0-4.35c-4.09,0-7.96,0-12.02,0c-0.07-1.5-0.16-2.68-0.16-3.86
		c-0.01-30.05-0.01-60.11-0.01-90.16c0-10.63-0.01-21.26,0.01-31.89c0-1.08,0.16-2.16,0.26-3.54c4.12,0,7.99,0,11.89,0
		c0-1.62,0-2.91,0-4.23c-20.44,0-40.63,0-60.93,0c0,1.46,0,2.76,0,4.37c4.07,0,7.94,0,12.02,0c0.07,1.49,0.16,2.67,0.16,3.85
		c0.01,25.18,0.01,50.36,0.01,75.54c0,15.51,0,31.01-0.01,46.52c0,1.08-0.15,2.16-0.26,3.54c-4.12,0-8,0-11.95,0
		c-0.07,0.93-0.16,1.56-0.16,2.19C850.47,253.49,850.57,254.12,850.64,254.91z M217.27,148.61c0.49-0.12,0.81-0.15,1.08-0.28
		c8.85-4.15,16.86-9.47,23.2-17.02c6.56-7.81,10.86-16.53,10.26-27.08c-0.33-5.87-1.86-11.32-5.51-16.05
		c-6.49-8.42-18.89-10.83-28.06-5.43c-1.09,0.64-2.13,1.43-3.05,2.31c-4.46,4.24-6.01,9.52-5.93,15.59
		c0.14,10.9,10.22,16.75,18.54,15.21c2.04-0.38,4.09-0.71,6.15-0.98c3.47-0.45,5.34,1.32,5.05,4.83c-0.21,2.57-0.94,5-2.2,7.28
		c-1.56,2.83-3.62,5.25-5.95,7.46c-3.97,3.77-8.49,6.75-13.18,9.53c-0.6,0.36-1.17,0.76-1.87,1.21
		C216.32,146.42,216.78,147.49,217.27,148.61z M369.8,299.12c-0.58,3.53-0.39,51.88,0.2,53.68c0.34,0.04,0.73,0.12,1.12,0.12
		c6.24,0.01,12.48,0.13,18.71-0.07c2.27-0.07,4.61-0.63,6.75-1.43c5.76-2.15,8.89-6.88,8.88-12.91c-0.01-5.85-3.24-10.52-8.8-12.75
		c-0.48-0.19-0.91-0.47-1.73-0.9c1.1-0.53,1.88-0.9,2.64-1.28c8.75-4.35,8.05-15.77,3.09-20.42c-2.9-2.72-6.36-4.03-10.2-4.15
		c-6.31-0.19-12.63-0.13-18.94-0.16C370.98,298.87,370.45,299.02,369.8,299.12z M850.95,326.73c0-7.35-1.47-12.77-4.81-17.41
		c-6.22-8.65-14.84-11.96-25.27-10.88c-10.65,1.1-19.15,8.2-22.18,18.45c-1.23,4.18-1.55,8.43-1.04,12.79
		c0.74,6.34,3.18,11.85,7.73,16.33c5.62,5.53,12.5,7.8,20.3,7.41c8.88-0.44,15.95-4.22,20.88-11.69
		C849.74,336.93,851.04,331.55,850.95,326.73z M741.79,352.63c-4.56-7.56-9.02-14.97-13.4-22.22c0.24-0.39,0.27-0.49,0.32-0.51
		c0.9-0.32,1.79-0.63,2.69-0.94c4.97-1.71,8.38-4.99,9.56-10.16c0.49-2.14,0.46-4.44,0.37-6.65c-0.13-3.23-1.52-6-3.75-8.34
		c-3.05-3.19-6.93-4.59-11.19-4.75c-5.83-0.22-11.67-0.14-17.51-0.17c-0.53,0-1.06,0.17-1.7,0.28c0,17.91,0,35.69,0,53.6
		c1.67,0.19,3.2,0.47,4.93-0.28c0-7.34,0-14.66,0-22.15c0.99-0.1,1.77-0.22,2.55-0.24c1.84-0.03,3.68,0.07,5.52-0.03
		c1.63-0.09,2.63,0.52,3.46,1.96c3.27,5.68,6.65,11.29,9.98,16.93c2.51,4.24,2.51,4.24,7.48,3.93
		C741.2,352.87,741.28,352.82,741.79,352.63z M560.89,310.66c-0.85-4.95-3.54-8.17-7.61-10.4c-2.59-1.41-5.44-1.9-8.31-2.04
		c-4.3-0.22-8.47,0.46-12.18,2.83c-5.06,3.23-6.85,7.97-6.22,13.8c0.56,5.19,3.62,8.41,8.26,10.22c2.9,1.13,5.92,1.92,8.88,2.88
		c2.28,0.74,4.61,1.34,6.81,2.28c3.02,1.29,5.16,3.49,5.76,6.86c0.89,4.98-1.66,9.46-6.42,11.31c-2.99,1.16-6.07,1.27-9.2,0.69
		c-4.69-0.88-7.69-3.64-9.11-8.17c-0.16-0.51-0.45-0.98-0.64-1.36c-1.66,0-3.13,0-4.67,0c-0.04,0.57-0.13,0.97-0.09,1.35
		c0.05,0.47,0.17,0.94,0.3,1.4c1.33,4.75,4.53,7.79,8.97,9.63c3.87,1.61,7.93,1.82,12.02,1.36c3.05-0.34,5.9-1.4,8.38-3.29
		c4.57-3.49,6.18-8.23,5.47-13.77c-0.65-5.03-3.8-8.16-8.36-9.9c-2.9-1.11-5.92-1.92-8.87-2.91c-2.35-0.78-4.76-1.43-6.99-2.47
		c-3.93-1.83-5.89-4.97-5.54-9.44c0.33-4.17,2.69-6.78,6.4-8.17c5.49-2.07,14.41-1.45,17.57,6.99c0.05,0.13,0.21,0.22,0.31,0.33
		C557.43,310.66,559.05,310.66,560.89,310.66z M630.79,303.06c0,1.15,0,2.1,0,3.04c0,14.63,0,29.25,0.01,43.88
		c0,0.93,0.1,1.85,0.15,2.72c1.74,0,3.2,0,4.81,0c0-5.74,0-11.25,0-16.76c0-5.44,0-10.87,0-16.31c0.01-5.48,0.02-10.97,0.03-16.75
		c5.17-0.07,10-0.13,14.96-0.19c0-1.39,0-2.51,0-3.69c-0.89-0.07-1.52-0.15-2.15-0.15c-10.07-0.01-20.15-0.01-30.22-0.01
		c-0.4,0-0.8,0.02-1.2,0.03c-0.97,0.01-1.42,0.5-1.5,1.47c-0.17,1.87,0.25,2.4,2.26,2.43c3.28,0.04,6.56,0,9.83,0.03
		C628.69,302.81,629.62,302.96,630.79,303.06z M463.38,299.04c-0.53,3.39-0.38,51.84,0.14,53.7c1.36,0,2.73,0,4.27,0
		c0.05-0.96,0.14-1.74,0.14-2.53c0.01-16.2,0.01-32.4,0-48.59c0-0.84-0.15-1.68-0.23-2.58C466.12,299.04,464.8,299.04,463.38,299.04
		z"/>
	<path class="st1" d="M195.09,250.58c4.17,0,7.97,0,12.01,0c0,1.57,0,2.86,0,4.32c-16.12,0-32.16,0-48.4,0
		c-0.94-3.32,0.18-6.87-0.66-10.38c-0.36,0.2-0.63,0.26-0.72,0.42c-3.45,6.11-8.88,9.53-15.48,11.2c-10.1,2.56-20.3,3.05-30.24-0.44
		c-14.43-5.06-24.16-15.18-29.85-29.25c-2.59-6.41-3.81-13.15-4.43-20.04c-0.69-7.68-0.5-15.33,0.57-22.95
		c2.01-14.31,7.55-26.84,18.71-36.47c9.5-8.2,20.53-11.68,33.02-10.77c5,0.36,9.76,1.54,14.35,3.52c5.44,2.35,9.85,5.88,12.84,11.07
		c0.23,0.39,0.53,0.75,0.85,1.19c0.93-0.79,0.67-1.72,0.67-2.53c0.03-5.52,0.01-11.03,0.01-16.55c0-11.83,0.01-23.66-0.01-35.49
		c0-1.09-0.13-2.19-0.22-3.48c-4.03,0-7.85,0-11.58,0c-0.74-1.91-0.75-2.17-0.21-4.43c16.08,0,32.2,0,48.57,0
		c0.41,4.5,0.13,8.95,0.18,13.39c0.05,4.48,0.01,8.95,0.01,13.43c0,4.48,0,8.95,0,13.43c0,4.4,0,8.79,0,13.19c0,4.48,0,8.95,0,13.43
		c0,4.48,0,8.95,0,13.43c0,4.48,0,8.95,0,13.43s0,8.95,0,13.43s0,8.95,0,13.43c0,4.4,0,8.79,0,13.19c0,4.48,0,8.95,0,13.43
		C195.09,241.2,195.09,245.67,195.09,250.58z M158.49,189.26c-0.05,0-0.09,0-0.14,0c0-8.95,0.02-17.9-0.02-26.85
		c-0.01-1.09-0.08-2.3-0.55-3.25c-1.7-3.47-3.94-6.58-6.99-9.03c-3.39-2.71-7.25-3.9-11.61-3.58c-4.88,0.36-8.84,2.57-12.22,5.94
		c-4.34,4.32-7.2,9.53-9.05,15.33c-2.73,8.61-3.48,17.52-3.77,26.47c-0.23,7.04,0.06,14.06,0.94,21.05
		c0.76,6.04,1.98,11.98,4.45,17.58c2.26,5.12,5.31,9.67,9.96,12.95c5.08,3.59,10.55,3.57,16.25,1.76c5.21-1.65,7.82-5.5,9.19-10.48
		c0.09-0.31,0.16-0.62,0.24-0.93c1.89-6.9,2.53-13.99,2.8-21.09C158.3,206.52,158.33,197.88,158.49,189.26z"/>
	<path class="st1" d="M705.75,257.3c-6.47,0-12.63,0.15-18.77-0.05c-5.11-0.16-10.16-1.04-15.15-2.24
		c-13.15-3.15-22.18-11.15-27.74-23.33c-2.47-5.42-3.94-11.12-5.2-16.91c-0.83-3.82-1.74-7.64-2.91-11.36
		c-0.74-2.33-1.81-4.63-3.13-6.69c-2.52-3.91-6.27-6.15-10.95-6.43c-3.83-0.22-7.67-0.17-11.51-0.21c-0.46,0-0.92,0.15-1.33,0.22
		c-0.65,2-0.74,57.44-0.11,60.02c1.89,0.57,3.88,0.19,5.85,0.26c1.9,0.07,3.81,0.01,5.93,0.01c0,1.54,0,2.84,0,4.3
		c-20.27,0-40.46,0-60.65,0c-0.65-1.74-0.65-1.74-0.16-4.25c3.79,0,7.65,0,11.42,0c0.54-2.13,0.68-126.03,0.18-129.37
		c-3.79-0.06-7.66-0.12-11.74-0.18c0-1.48,0-2.77,0-4.26c0.89-0.05,1.66-0.13,2.44-0.13c22.23,0,44.47-0.1,66.7,0.06
		c11.13,0.08,22.18,1.24,32.86,4.72c6.29,2.05,12.14,4.93,16.94,9.63c4.94,4.83,7.61,10.72,8.47,17.56
		c0.48,3.86,0.42,7.67-0.35,11.45c-2.3,11.34-9.53,18.51-19.84,22.92c-4.52,1.93-9.32,2.8-14.24,2.99c-0.8,0.03-1.62,0.03-2.37,0.23
		c-0.33,0.09-0.72,0.68-0.71,1.03c0,0.34,0.42,0.85,0.76,0.98c0.58,0.21,1.25,0.21,1.89,0.25c8.65,0.51,15.58,4.36,21.07,10.93
		c4.37,5.23,7.24,11.27,9.39,17.68c1.65,4.92,3.02,9.94,4.82,14.8c1.44,3.88,3.22,7.65,5.05,11.37c1.28,2.59,3.11,4.84,5.36,6.7
		c1.76,1.45,3.74,2.43,5.98,2.91c1.96,0.42,2.06,0.53,2.01,2.47C705.99,255.99,705.84,256.61,705.75,257.3z M608.74,121.24
		c-0.08,1.42-0.18,2.52-0.18,3.62c-0.01,19.03-0.01,38.05-0.01,57.08c0,0.48-0.01,0.96,0.01,1.44c0.09,2.11,0.27,2.35,2.4,2.31
		c2.88-0.07,5.76-0.17,8.62-0.42c5.02-0.43,9.97-1.2,14.81-2.73c7.56-2.39,12.37-7.41,14.58-14.93c2.39-8.14,2.46-16.39,0.61-24.64
		c-2.29-10.22-8.42-16.76-18.67-19.4c-5.53-1.42-11.14-2.12-16.82-2.31C612.43,121.19,610.76,121.24,608.74,121.24z"/>
	<path class="st1" d="M279.16,121.2c-3.97,0-7.85,0-11.94,0c0-1.57,0-2.87,0-4.3c0.62-0.07,1.16-0.18,1.69-0.18
		c22.15,0.01,44.31-0.1,66.46,0.11c9.52,0.09,18.97,1.26,28.12,4.2c6.49,2.08,12.37,5.19,17.2,10.1c4.84,4.93,7.54,10.83,7.99,17.74
		c0.24,3.69,0.19,7.37-0.78,10.95c-3,11.07-10.29,17.75-21.33,20.4c-2.24,0.54-4.58,0.65-6.88,0.95c-0.47,0.06-0.98-0.02-1.42,0.13
		c-0.31,0.1-0.78,0.51-0.75,0.72c0.06,0.38,0.39,0.98,0.68,1.03c1.34,0.2,2.7,0.25,4.05,0.34c8.73,0.58,16.76,3.16,23.91,8.29
		c7.88,5.66,12.04,13.4,13.08,23c0.54,5,0.31,9.89-1.02,14.73c-1.81,6.59-5.68,11.73-11.21,15.66c-6.05,4.29-12.9,6.63-20.09,8.08
		c-6.76,1.36-13.6,1.93-20.49,1.94c-25.35,0-50.71,0-76.06,0c-0.95,0-1.91,0-3.11,0c0-1.44,0-2.73,0-4.27
		c3.9-0.49,7.89,0.07,11.75-0.31C279.54,248.58,279.7,124.81,279.16,121.2z M316.13,250.42c1.1,0.08,1.8,0.18,2.5,0.18
		c4.64,0,9.28,0.17,13.9-0.09c3.4-0.2,6.88-0.6,10.14-1.55c10.96-3.2,17.73-10.41,19.63-21.81c1.08-6.45,0.56-12.88-0.67-19.28
		c-1.98-10.34-7.97-17.13-17.83-20.69c-8.53-3.07-17.37-3.21-26.26-3.02c-1,0.02-1.41,0.6-1.4,1.54c0.01,0.48-0.01,0.96-0.01,1.44
		c0,20.13,0,40.27,0,60.4C316.13,248.39,316.13,249.26,316.13,250.42z M316.47,179.58c7.02,0.06,13.96,0.52,20.72-1.64
		c8.75-2.79,14.17-8.66,16.18-17.61c1.42-6.32,1.38-12.67,0.02-19.01c-2.13-9.93-8.09-16.22-17.92-18.84
		c-6.12-1.63-12.35-1.37-18.58-1.16c-0.14,0-0.27,0.15-0.4,0.23C316.04,123.39,315.95,176.65,316.47,179.58z"/>
	<path class="st1" d="M1168.14,114.4c1.26,0,2.51,0,3.73,0c0.48,1.82,0.61,41.26,0.16,44.53c-1.27,0-2.58,0-4.03,0
		c-0.2-1.85-0.36-3.66-0.59-5.46c-1.35-10.58-6.63-18.85-15.04-25.21c-6.66-5.04-14.21-7.95-22.46-8.91
		c-3.95-0.46-7.99-0.69-11.95-0.46c-7.32,0.42-12.65,4.19-15.73,10.84c-3.71,8.02-0.87,17.7,6.41,22.68
		c6.04,4.13,12.68,7.06,19.34,10c10.38,4.57,20.66,9.36,30.96,14.11c6.19,2.85,11.14,7.45,16.19,11.86c1.07,0.93,2.01,2.1,2.72,3.32
		c2.95,5.06,5.57,10.29,6.19,16.22c1.55,14.83-2.79,34.06-19.66,43.82c-5.68,3.29-11.81,5.25-18.27,6.21
		c-17.33,2.56-33.69-0.65-49.3-8.35c-2.79-1.38-5.65-2.61-8.53-3.78c-1.88-0.76-3.86-0.86-5.89-0.41c-3.55,0.78-5.8,2.94-6.53,6.49
		c-0.21,1-0.38,2-0.58,3.06c-1.36,0-2.53,0-3.66,0c-0.59-1.89-0.71-54.16-0.13-56.96c1.12,0,2.28,0,3.75,0
		c0.16,1.37,0.41,2.84,0.49,4.31c1.46,25.3,22.18,45.53,44.03,50.14c4.86,1.03,9.78,1.63,14.76,1.42
		c5.42-0.23,10.32-1.83,14.51-5.45c6.79-5.87,10.79-20.23,0.19-29.52c-3.22-2.82-6.8-5.05-10.65-6.86
		c-8.97-4.21-17.99-8.31-26.91-12.6c-5.61-2.7-11.13-5.6-16.61-8.56c-3.95-2.13-7.58-4.76-10.75-7.98
		c-7.58-7.7-10.4-16.99-9.37-27.62c0.48-4.96,1.38-9.82,3.28-14.43c5.72-13.84,16.31-21.95,30.59-25.54
		c5.97-1.5,12.06-1.12,18.13-0.77c9.51,0.54,18.56,3.08,27.5,6.15c2.26,0.77,4.58,1.41,6.9,2c2.6,0.65,4.58-0.33,5.53-2.89
		C1167.44,118.16,1167.67,116.4,1168.14,114.4z"/>
	<path class="st1" d="M1012.73,250.62c5.47,0,11.03,0,16.77,0c0,1.53,0,2.76,0,3.99c-1.66,0.57-65.61,0.84-70.95,0.29
		c-0.67-1.32-0.57-2.67,0.02-4.27c5.5,0,10.99,0,16.74,0c0.12-1.2,0.31-2.19,0.31-3.18c0.02-7.36,0.01-14.71,0.01-22.07
		c0-33.42,0-66.84-0.01-100.26c0-1.18-0.09-2.36-0.13-3.47c-0.41-0.21-0.61-0.4-0.82-0.4c-7.35-0.13-14.72-0.38-21.95,1.4
		c-1.08,0.27-2.16,0.57-3.23,0.9c-7.05,2.15-11.61,6.77-13.75,13.81c-1.52,5-2.25,10.13-2.46,15.33c-0.07,1.74-0.09,3.48-0.14,5.38
		c-1.53,0-2.77,0-3.99,0c-0.51-1.75-0.7-37.23-0.24-40.94c1.64-0.53,126.5-0.75,130.12-0.22c0.56,1.81,0.61,38.94,0.01,41.19
		c-1.21,0-2.45,0-3.94,0c-0.05-0.95-0.11-1.79-0.14-2.65c-0.19-5.84-0.78-11.62-2.36-17.29c-2.12-7.66-6.89-12.74-14.58-14.74
		c-3.92-1.02-7.97-1.71-12.01-2.08c-4.05-0.36-8.15-0.14-12.23-0.16c-0.39,0-0.77,0.12-1.13,0.18
		C1012.02,123.62,1012.02,248.2,1012.73,250.62z"/>
	<path class="st1" d="M769.47,250.45c0.8,0.06,1.5,0.15,2.2,0.15c9.04-0.01,18.07,0.06,27.1-0.08c6.8-0.1,13.27-1.55,19.22-5.11
		c4.44-2.66,7.58-6.28,9.59-10.99c2.28-5.36,3.29-10.99,3.75-16.75c0.24-2.94,0.39-5.88,0.59-8.79c0.29-0.15,0.5-0.33,0.72-0.36
		c3.2-0.49,3.61-0.14,3.61,3.1c0,13.43,0,26.86,0,40.28c0,0.94-0.08,1.88-0.12,2.75c-1.93,0.5-112.79,0.62-115.87,0.16
		c0-1.26,0-2.55,0-4.13c4,0,7.88,0,11.49,0c0.32-0.34,0.38-0.39,0.43-0.45c0.05-0.06,0.13-0.12,0.14-0.18
		c0.06-0.47,0.16-0.95,0.16-1.42c-0.01-42.12-0.02-84.25-0.04-126.37c0-0.22-0.13-0.45-0.27-0.89c-3.87-0.47-7.85,0.07-11.94-0.32
		c0-1.42,0-2.65,0-3.87c0.08-0.08,0.13-0.15,0.19-0.2c0.06-0.05,0.12-0.12,0.19-0.13c0.31-0.06,0.63-0.13,0.94-0.13
		c20.39-0.01,40.78,0,61.17,0c0.31,0,0.62,0.09,1.12,0.16c0,1.33,0,2.63,0,4.28c-4.79,0-9.54,0-14.18,0
		C769.07,123.27,768.94,247.29,769.47,250.45z"/>
	<path class="st1" d="M416.18,250.6c6.59,0,12.86,0,19.28,0c0,1.56,0,2.81,0,4.05c-1.66,0.51-38.14,0.67-41.55,0.16
		c0-1.26,0-2.55,0-4.03c0.8-0.06,1.5-0.17,2.19-0.17c3.92-0.02,7.84-0.09,11.75,0.03c1.78,0.05,2.69-0.54,3.38-2.22
		c5.92-14.4,11.93-28.77,17.92-43.14c12.28-29.48,24.57-58.96,36.86-88.45c1.18-2.84,0.84-2.53,3.79-2.56c1.03-0.01,2.06,0,3.11,0
		c0.51,1.02,0.95,1.87,1.35,2.73c19.9,43.06,39.8,86.13,59.7,129.19c0.44,0.94,0.94,1.86,1.29,2.83c0.46,1.26,1.3,1.64,2.59,1.6
		c2.4-0.08,4.8-0.02,7.2-0.02c0.79,0,1.58,0,2.6,0c0,1.5,0,2.79,0,4.08c-1.73,0.46-61.01,0.61-64.39,0.14c0-1.26,0-2.56,0-4.16
		c4.71,0,9.3,0,14.23,0c-0.28-0.95-0.38-1.55-0.63-2.08c-4.98-10.37-9.99-20.72-14.94-31.1c-0.64-1.34-1.48-1.83-2.96-1.83
		c-15.43,0.05-30.86,0.05-46.3-0.01c-1.64-0.01-2.39,0.59-2.99,2.06c-4.19,10.19-8.47,20.35-12.71,30.52
		C416.68,248.87,416.52,249.55,416.18,250.6z M454.21,159.94c-2.01,3.23-20.85,48.86-21.05,50.82c0.69,0.08,1.39,0.23,2.08,0.23
		c13.59,0.01,27.18,0.02,40.77,0c0.74,0,1.48-0.19,2.58-0.33C470.41,193.63,462.41,176.98,454.21,159.94z"/>
	<path class="st1" d="M850.64,254.91c-0.07-0.79-0.17-1.42-0.17-2.04c0-0.63,0.09-1.25,0.16-2.19c3.95,0,7.83,0,11.95,0
		c0.1-1.37,0.26-2.46,0.26-3.54c0.02-15.51,0.01-31.01,0.01-46.52c0-25.18,0-50.36-0.01-75.54c0-1.18-0.1-2.36-0.16-3.85
		c-4.08,0-7.95,0-12.02,0c0-1.61,0-2.91,0-4.37c20.29,0,40.48,0,60.93,0c0,1.32,0,2.61,0,4.23c-3.89,0-7.77,0-11.89,0
		c-0.11,1.38-0.26,2.46-0.26,3.54c-0.02,10.63-0.01,21.26-0.01,31.89c0,30.05,0,60.11,0.01,90.16c0,1.18,0.1,2.36,0.16,3.86
		c4.06,0,7.93,0,12.02,0c0,1.61,0,2.9,0,4.35C891.3,254.91,871.11,254.91,850.64,254.91z"/>
	<path class="st1" d="M217.27,148.61c-0.48-1.12-0.95-2.19-1.47-3.41c0.7-0.46,1.27-0.86,1.87-1.21c4.68-2.78,9.21-5.77,13.18-9.53
		c2.33-2.21,4.39-4.63,5.95-7.46c1.26-2.28,1.99-4.71,2.2-7.28c0.29-3.51-1.58-5.28-5.05-4.83c-2.06,0.27-4.11,0.6-6.15,0.98
		c-8.32,1.54-18.4-4.31-18.54-15.21c-0.08-6.07,1.47-11.35,5.93-15.59c0.92-0.87,1.95-1.66,3.05-2.31
		c9.17-5.41,21.57-2.99,28.06,5.43c3.65,4.73,5.18,10.18,5.51,16.05c0.6,10.55-3.7,19.27-10.26,27.08
		c-6.34,7.54-14.35,12.86-23.2,17.02C218.08,148.46,217.76,148.49,217.27,148.61z"/>
	<path class="st1" d="M369.8,299.12c0.64-0.1,1.18-0.25,1.72-0.25c6.32,0.03,12.63-0.03,18.94,0.16c3.84,0.12,7.3,1.42,10.2,4.15
		c4.96,4.65,5.66,16.07-3.09,20.42c-0.77,0.38-1.54,0.75-2.64,1.28c0.81,0.43,1.25,0.71,1.73,0.9c5.55,2.23,8.78,6.9,8.8,12.75
		c0.01,6.03-3.11,10.76-8.88,12.91c-2.14,0.8-4.48,1.36-6.75,1.43c-6.23,0.19-12.47,0.07-18.71,0.07c-0.39,0-0.77-0.08-1.12-0.12
		C369.41,351,369.22,302.65,369.8,299.12z M374.4,348.62c0.81,0.14,1.12,0.25,1.43,0.25c4.39,0,8.78,0.11,13.16-0.07
		c1.79-0.07,3.65-0.53,5.32-1.19c3.53-1.39,5.66-4.04,6.1-7.89c0.47-4.18-0.6-7.75-4.19-10.28c-2.36-1.66-5.03-2.37-7.88-2.4
		c-3.91-0.03-7.82-0.02-11.73,0c-0.62,0-1.23,0.11-2.17,0.21C374.29,334.4,374.33,341.45,374.4,348.62z M374.81,322.81
		c0.48,0.07,0.87,0.16,1.26,0.16c4.16,0.01,8.31,0.1,12.46-0.05c1.64-0.06,3.34-0.45,4.88-1.04c2.94-1.13,4.85-3.31,5.52-6.44
		c1.41-6.53-2.26-11.81-8.95-12.29c-4.92-0.35-9.89-0.08-14.84-0.07c-0.13,0-0.27,0.16-0.4,0.24
		C374.19,305.44,374.19,320.49,374.81,322.81z"/>
	<path class="st1" d="M850.95,326.73c0.08,4.82-1.21,10.19-4.39,15c-4.93,7.47-12,11.25-20.88,11.69c-7.8,0.39-14.68-1.88-20.3-7.41
		c-4.55-4.48-6.99-9.99-7.73-16.33c-0.51-4.35-0.2-8.61,1.04-12.79c3.02-10.26,11.53-17.35,22.18-18.45
		c10.43-1.08,19.05,2.23,25.27,10.88C849.49,313.97,850.95,319.39,850.95,326.73z M846,325.83c-0.26-2.13-0.36-4.3-0.81-6.4
		c-2-9.47-9.83-16.34-19.04-16.84c-10.66-0.57-18.9,4.71-22.21,14.26c-1.33,3.83-1.54,7.78-1.27,11.82
		c0.57,8.53,6.07,19.44,19.72,20.49c8.66,0.66,15.64-2.59,20.21-10.23C845.01,334.92,845.95,330.5,846,325.83z"/>
	<path class="st1" d="M741.79,352.63c-0.51,0.2-0.59,0.24-0.66,0.25c-4.97,0.31-4.97,0.31-7.48-3.93
		c-3.34-5.64-6.72-11.25-9.98-16.93c-0.83-1.44-1.83-2.04-3.46-1.96c-1.83,0.1-3.68,0-5.52,0.03c-0.78,0.01-1.56,0.14-2.55,0.24
		c0,7.49,0,14.81,0,22.15c-1.73,0.74-3.26,0.46-4.93,0.28c0-17.92,0-35.7,0-53.6c0.63-0.11,1.17-0.28,1.7-0.28
		c5.84,0.03,11.68-0.05,17.51,0.17c4.26,0.16,8.14,1.56,11.19,4.75c2.23,2.34,3.62,5.11,3.75,8.34c0.09,2.21,0.12,4.51-0.37,6.65
		c-1.18,5.17-4.59,8.45-9.56,10.16c-0.9,0.31-1.8,0.62-2.69,0.94c-0.06,0.02-0.08,0.13-0.32,0.51
		C732.77,337.66,737.23,345.06,741.79,352.63z M712.2,325.89c0.51,0.14,0.89,0.34,1.26,0.33c4.38-0.09,8.8,0.11,13.14-0.38
		c8.82-1.01,13.11-11.56,7.67-18.64c-0.98-1.27-2.45-2.32-3.92-3c-1.47-0.69-3.21-1.04-4.85-1.11c-3.9-0.17-7.82-0.1-11.73-0.1
		c-0.52,0-1.04,0.2-1.57,0.31C712.2,310.91,712.2,318.38,712.2,325.89z"/>
	<path class="st1" d="M560.89,310.66c-1.83,0-3.45,0-5.09,0c-0.1-0.1-0.26-0.19-0.31-0.33c-3.16-8.44-12.07-9.06-17.57-6.99
		c-3.71,1.4-6.07,4-6.4,8.17c-0.35,4.47,1.61,7.6,5.54,9.44c2.23,1.04,4.64,1.69,6.99,2.47c2.95,0.98,5.96,1.8,8.87,2.91
		c4.57,1.74,7.72,4.88,8.36,9.9c0.71,5.54-0.9,10.27-5.47,13.77c-2.48,1.89-5.33,2.95-8.38,3.29c-4.09,0.46-8.16,0.25-12.02-1.36
		c-4.44-1.84-7.64-4.88-8.97-9.63c-0.13-0.46-0.25-0.93-0.3-1.4c-0.04-0.38,0.05-0.78,0.09-1.35c1.54,0,3.02,0,4.67,0
		c0.18,0.39,0.48,0.85,0.64,1.36c1.43,4.53,4.42,7.29,9.11,8.17c3.13,0.58,6.21,0.47,9.2-0.69c4.75-1.84,7.3-6.33,6.42-11.31
		c-0.6-3.37-2.74-5.58-5.76-6.86c-2.19-0.94-4.53-1.54-6.81-2.28c-2.96-0.96-5.98-1.75-8.88-2.88c-4.65-1.81-7.7-5.02-8.26-10.22
		c-0.63-5.83,1.16-10.57,6.22-13.8c3.71-2.37,7.87-3.04,12.18-2.83c2.88,0.14,5.72,0.63,8.31,2.04
		C557.35,302.48,560.03,305.71,560.89,310.66z"/>
	<path class="st1" d="M630.79,303.06c-1.17-0.1-2.1-0.25-3.03-0.26c-3.28-0.03-6.56,0.01-9.83-0.03c-2.01-0.03-2.43-0.56-2.26-2.43
		c0.09-0.97,0.53-1.46,1.5-1.47c0.4,0,0.8-0.03,1.2-0.03c10.07,0,20.15,0,30.22,0.01c0.63,0,1.26,0.09,2.15,0.15
		c0,1.18,0,2.3,0,3.69c-4.96,0.06-9.79,0.12-14.96,0.19c-0.01,5.78-0.03,11.27-0.03,16.75c-0.01,5.44,0,10.87,0,16.31
		c0,5.51,0,11.02,0,16.76c-1.61,0-3.07,0-4.81,0c-0.05-0.87-0.15-1.8-0.15-2.72c-0.01-14.63-0.01-29.25-0.01-43.88
		C630.79,305.16,630.79,304.21,630.79,303.06z"/>
	<path class="st1" d="M463.38,299.04c1.42,0,2.73,0,4.31,0c0.08,0.9,0.23,1.74,0.23,2.58c0.01,16.2,0.01,32.4,0,48.59
		c0,0.78-0.08,1.56-0.14,2.53c-1.53,0-2.91,0-4.27,0C463,350.88,462.85,302.43,463.38,299.04z"/>
	<path class="st0" d="M158.49,189.26c-0.16,8.63-0.19,17.26-0.51,25.88c-0.27,7.1-0.91,14.19-2.8,21.09
		c-0.08,0.31-0.16,0.62-0.24,0.93c-1.37,4.97-3.98,8.83-9.19,10.48c-5.7,1.81-11.17,1.83-16.25-1.76
		c-4.65-3.28-7.71-7.83-9.96-12.95c-2.47-5.6-3.69-11.55-4.45-17.58c-0.88-6.99-1.17-14.02-0.94-21.05
		c0.29-8.96,1.04-17.86,3.77-26.47c1.84-5.8,4.71-11.01,9.05-15.33c3.38-3.37,7.34-5.58,12.22-5.94c4.36-0.32,8.21,0.87,11.61,3.58
		c3.06,2.44,5.29,5.56,6.99,9.03c0.47,0.95,0.54,2.16,0.55,3.25c0.04,8.95,0.02,17.9,0.02,26.85
		C158.39,189.25,158.44,189.25,158.49,189.26z"/>
	<path class="st0" d="M608.74,121.24c2.02,0,3.69-0.05,5.36,0.01c5.68,0.19,11.29,0.89,16.82,2.31c10.25,2.64,16.38,9.18,18.67,19.4
		c1.85,8.26,1.78,16.5-0.61,24.64c-2.21,7.52-7.01,12.54-14.58,14.93c-4.84,1.53-9.79,2.3-14.81,2.73
		c-2.87,0.24-5.75,0.35-8.62,0.42c-2.13,0.05-2.32-0.2-2.4-2.31c-0.02-0.48-0.01-0.96-0.01-1.44c0-19.03,0-38.05,0.01-57.08
		C608.55,123.76,608.66,122.66,608.74,121.24z"/>
	<path class="st0" d="M316.13,250.42c0-1.17,0-2.03,0-2.89c0-20.13,0-40.27,0-60.4c0-0.48,0.02-0.96,0.01-1.44
		c-0.01-0.95,0.39-1.52,1.4-1.54c8.89-0.19,17.73-0.05,26.26,3.02c9.86,3.55,15.85,10.35,17.83,20.69
		c1.23,6.41,1.75,12.83,0.67,19.28c-1.9,11.4-8.68,18.61-19.63,21.81c-3.26,0.95-6.74,1.35-10.14,1.55
		c-4.62,0.26-9.27,0.1-13.9,0.09C317.93,250.6,317.23,250.5,316.13,250.42z"/>
	<path class="st0" d="M316.47,179.58c-0.52-2.93-0.43-56.19,0.02-58.04c0.13-0.08,0.27-0.22,0.4-0.23
		c6.23-0.21,12.46-0.47,18.58,1.16c9.83,2.62,15.79,8.91,17.92,18.84c1.36,6.34,1.4,12.69-0.02,19.01
		c-2.01,8.95-7.42,14.82-16.18,17.61C330.43,180.1,323.49,179.65,316.47,179.58z"/>
	<path class="st0" d="M454.21,159.94c8.19,17.04,16.19,33.69,24.38,50.72c-1.1,0.15-1.84,0.33-2.58,0.33
		c-13.59,0.02-27.18,0.02-40.77,0c-0.7,0-1.39-0.15-2.08-0.23C433.36,208.8,452.2,163.17,454.21,159.94z"/>
	<path class="st0" d="M374.4,348.62c-0.07-7.18-0.1-14.22,0.04-21.38c0.93-0.09,1.55-0.2,2.17-0.21c3.91-0.02,7.82-0.03,11.73,0
		c2.85,0.02,5.52,0.73,7.88,2.4c3.59,2.53,4.66,6.1,4.19,10.28c-0.44,3.85-2.57,6.5-6.1,7.89c-1.68,0.66-3.53,1.12-5.32,1.19
		c-4.38,0.17-8.77,0.07-13.16,0.07C375.52,348.87,375.21,348.77,374.4,348.62z"/>
	<path class="st0" d="M374.81,322.81c-0.61-2.32-0.61-17.37-0.06-19.49c0.13-0.08,0.26-0.24,0.4-0.24
		c4.95-0.01,9.92-0.28,14.84,0.07c6.7,0.48,10.37,5.76,8.95,12.29c-0.68,3.14-2.59,5.31-5.52,6.44c-1.54,0.59-3.24,0.98-4.88,1.04
		c-4.15,0.15-8.31,0.06-12.46,0.05C375.68,322.97,375.29,322.88,374.81,322.81z"/>
	<path class="st0" d="M846,325.83c-0.05,4.68-1,9.09-3.4,13.1c-4.57,7.64-11.55,10.89-20.21,10.23
		c-13.65-1.05-19.14-11.96-19.72-20.49c-0.27-4.03-0.05-7.98,1.27-11.82c3.31-9.55,11.55-14.83,22.21-14.26
		c9.2,0.49,17.03,7.37,19.04,16.84C845.64,321.52,845.74,323.69,846,325.83z"/>
	<path class="st0" d="M712.2,325.89c0-7.51,0-14.98,0-22.59c0.54-0.11,1.05-0.31,1.57-0.31c3.91,0,7.83-0.07,11.73,0.1
		c1.64,0.07,3.37,0.42,4.85,1.11c1.46,0.68,2.94,1.73,3.92,3c5.45,7.08,1.16,17.64-7.67,18.64c-4.34,0.5-8.76,0.29-13.14,0.38
		C713.09,326.23,712.71,326.03,712.2,325.89z"/>
</g>
</svg>
