 <svg xmlns="http://www.w3.org/2000/svg" xml:space="preserve" id="Layer_1" x="0" y="0" style="enable-background:new 0 0 1080 1080" version="1.1" viewBox="0 0 1080 1080"><style>.st0{fill:#fff}</style><path d="M0 1080V0h1080v1080H0zm542.85-37.78c280.27-.32 501.93-227.22 503.6-500.47 1.69-275.63-220.49-506.67-503.56-506.67-281.97 0-503.5 229.1-503.61 503.27-.11 275.57 222.87 503.56 503.57 503.87z" class="st0"/><path d="M542.85 1042.22c-280.7-.3-503.68-228.29-503.57-503.87C39.4 264.18 260.93 35.08 542.9 35.08c283.07 0 505.25 231.05 503.56 506.67-1.68 273.24-223.33 500.14-503.61 500.47zM140.51 446.79c.69 5.55.59 40.46-.12 44.35-.78-.8-1.43-1.43-2.05-2.09-2.45-2.6-5.36-4.57-8.68-5.84-13.9-5.32-26.99-3.93-38.9 5.21-9.58 7.35-14.79 17.41-17.07 29.1-1.45 7.42-1.59 14.9-1.1 22.43.41 6.27 1.55 12.39 4.01 18.16 5.97 13.99 16.03 23.31 31.24 26.27 5.51 1.07 11.11.76 16.68-.21 5.84-1.02 11.01-3.17 15.14-7.54.17-.17.58-.11.91-.16.98 1.65-.28 3.86 1.64 5.73 1.18.1 2.75.33 4.32.34 10.71.03 21.42.02 32.13.01 1.12 0 2.24-.04 3.35-.18 1.56-.2 2.21-1.03 2.19-2.59-.02-1.55-.68-2.41-2.23-2.59-1.42-.16-2.87-.09-4.3-.22-1.07-.1-2.13-.34-3.25-.53-.81-2.21-.54-4.3-.54-6.34-.02-41.24-.01-82.48-.02-123.72 0-5.46-.28-5.73-5.64-5.75-10.71-.04-21.42-.02-32.13 0-1.12 0-2.24.03-3.35.18-1.48.2-2.14 1.1-2.15 2.68-.01 1.55.64 2.37 2.22 2.57 1.26.15 2.55.1 3.82.22 1.24.09 2.47.31 3.88.51zm420.2 77.56c2.28-.42 3.66-.67 5.05-.92 10.69-1.98 23.47-10.01 24.29-25.86.56-10.78-3.3-19.37-12.59-25.24-3.68-2.32-7.68-3.9-11.85-5.1-9.15-2.65-18.56-3.36-28-3.46-17.12-.17-34.24-.06-51.36-.05-1.28 0-2.56.03-3.83.18-1.34.15-1.98.8-2.03 2.21-.03.88.32 1.78.46 2.5 3.11 1.44 6.39-.05 9.17 1.54.85 2.1.59 4.2.6 6.25.01 31.2.01 62.4.01 93.6 0 1.12.07 2.25-.05 3.36-.12 1.06-.45 2.1-.65 2.95-3.11 1.45-6.41-.19-9.1 1.53-.37 2.11-.37 2.11.45 4.43 1.74.09 3.63.27 5.52.27 13.28.02 26.56.02 39.84.01 1.44 0 2.89.02 4.31-.13.89-.1 1.76-.5 2.51-.72.44-3.97.15-4.41-3.01-4.64-1.27-.1-2.56-.01-3.84-.12-.91-.08-1.81-.35-2.59-.51-.72-4.1-.78-43.87-.11-48.18.38-.21.79-.62 1.21-.62 2.87-.06 5.77-.28 8.62.01 4.44.46 7.75 2.84 9.76 6.87.64 1.28 1.19 2.63 1.56 4.01 1 3.7 1.95 7.41 2.79 11.15 1.12 5.01 2.64 9.87 4.99 14.46 4.71 9.18 11.89 15.26 21.94 17.96 6.38 1.72 12.89 2.32 19.44 2.58 3.03.12 6.08.06 9.11-.11 2.09-.11 3.02-1.75 2.4-3.77-.39-1.27-1.47-1.63-2.56-1.89-3.69-.88-6.18-3.31-8.03-6.4-1.39-2.32-2.68-4.75-3.63-7.28-1.74-4.63-3.22-9.36-4.77-14.07-1.96-5.96-4.41-11.66-8.38-16.6-3.61-4.5-8.12-7.65-13.71-9.19-.98-.3-2.01-.53-3.94-1.01zm-317.17-54.01V530.9c0 13.44.01 26.87-.02 40.31 0 1.71.35 3.51-.59 5.17-3.02 1.38-6.48-.27-9.35 1.45-.7 1.44-.8 2.77.5 4.4 1.94.1 4.15.31 6.37.31 17.6.03 35.19.06 52.79-.01 5.75-.02 11.52-.12 17.25-.57 7.21-.56 14.2-2.15 20.73-5.44 11.1-5.58 16.04-14.75 15.43-26.94-.55-10.89-5.56-19.2-15.22-24.46-2.37-1.29-4.91-2.37-7.5-3.12-3.42-.99-6.96-1.56-10.18-2.25.5-.04 1.3-.03 2.09-.17 10.35-1.77 17.82-7.24 20.66-17.55 3.16-11.47-.11-21.7-9.28-28.65-4.68-3.55-10-5.62-15.63-7.04-7.65-1.92-15.47-2.52-23.3-2.59-16.47-.15-32.95-.05-49.43-.04-1.28 0-2.56.05-3.82.22-1.33.18-1.9.85-1.93 2.29-.02.76.22 1.53.33 2.2 3.07 1.8 6.55.09 10.1 1.92zm670.37 62.44c-1.29 1.93-.98 3.9-.98 5.78-.03 12.64-.02 25.28-.01 37.91 0 1.12-.01 2.24.1 3.36.18 1.9.75 2.45 2.79 2.5.74.02 1.49-.33 2.23-.51.33-1.11.58-2.03.88-2.93 1.11-3.37 2.82-4.55 6.37-4.64 2.34-.06 4.37.81 6.41 1.75 3.19 1.47 6.33 3.08 9.59 4.39 13.25 5.3 26.87 7 40.86 3.53 12.29-3.05 21.2-10.13 25.7-22.24 2.45-6.58 3.23-13.45 2.22-20.31-1.1-7.41-4.17-13.97-10.16-19a72.615 72.615 0 0 0-17.42-10.88c-7.45-3.31-14.91-6.6-22.37-9.88-4.54-2-8.95-4.22-13.17-6.87-4.95-3.1-6.96-7.4-7.05-13.23-.1-6.58 5.39-12.61 11.12-13.85 4.19-.91 8.26-.47 12.39.03 6.98.85 13.34 3.24 18.91 7.55 6.89 5.31 11.26 12.12 12.16 20.94.16 1.56.53 3.1.78 4.51 4.41.88 4.97.49 5.15-3.26.01-.16.01-.32.01-.48 0-10.24.01-20.48-.01-30.71 0-.95.02-1.97-.31-2.83-.24-.64-.96-1.35-1.6-1.51-.86-.22-1.85.05-2.97.13-.4 1.3-.76 2.51-1.14 3.71-.91 2.91-2.07 3.64-4.92 2.91-2.16-.56-4.32-1.18-6.43-1.91-6.82-2.35-13.77-4.07-20.99-4.7-4.96-.43-9.86-.55-14.81.31-14.69 2.55-26.32 13.37-29.79 27.78-.95 3.93-1.16 7.89-1.14 11.9.04 7.43 2.9 13.65 7.99 18.95 2.57 2.67 5.48 4.94 8.74 6.67 5.93 3.15 11.9 6.21 17.92 9.16 6.75 3.3 13.64 6.31 20.36 9.66 2.7 1.34 5.21 3.11 7.63 4.93 2.19 1.65 3.76 3.9 4.74 6.51 3.57 9.52-3.19 20.45-13.59 21.57-3.63.39-7.4.39-11.01-.14-14.61-2.16-25.85-9.74-33.86-22.07-3.71-5.72-5.87-12.03-6.42-18.87-.13-1.58-.48-3.15-.78-4.71-.05-.27-.37-.48-.69-.88-1.06-.03-2.28-.03-3.43-.03zm-120.85-68.11c-.16.64-.37 1.1-.37 1.57-.02 10.56-.04 21.11 0 31.67 0 .74.37 1.49.55 2.15 4.34.58 4.58.42 4.78-3.1.04-.8-.04-1.61.08-2.4.55-3.63 1-7.28 1.77-10.86 1.53-7.16 6.16-11.29 13.17-13.01 5.5-1.35 11.08-1.44 16.68-1.19.72.03 1.43.53 2.41.92V566.44c0 2.4.03 4.8-.04 7.2-.03.91-.28 1.82-.43 2.74-4.59 1.61-9.44-.53-13.96 1.65.1 1.41.18 2.61.29 4.11 1.98.16 3.71.42 5.45.42 16.79.03 33.59.03 50.38.01 1.74 0 3.53.17 5.13-.78.88-3.83.5-4.54-2.83-4.7-2.55-.13-5.12.01-7.67-.13-1.04-.05-2.06-.5-3.25-.8-.05-2.17-.12-4.08-.13-5.99-.01-31.35-.01-62.7 0-94.05 0-1.12-.05-2.24.05-3.36.08-.91.33-1.82.47-2.52.57-.3.84-.55 1.13-.57 6.41-.56 12.76-.33 18.99 1.48 6.03 1.75 9.9 5.63 11.58 11.68 1.16 4.17 1.9 8.41 1.98 12.75.03 1.56-.3 3.23.98 4.57 1.38.47 2.74.71 4.11-.49.09-.53.28-1.15.29-1.76.02-10.4.03-20.79 0-31.19 0-.74-.32-1.49-.45-2.04-2.03-1.2-3.99-.89-5.89-.9-11.04-.03-22.07-.02-33.11-.02-21.91 0-43.83-.01-65.74.02-2.05-.04-4.18-.41-6.4.9zM340.95 577.76c-.69 1.57-.83 2.91.46 4.45 1.35.1 2.93.32 4.51.32 8.64.03 17.28.02 25.92.01 1.12 0 2.24-.05 3.35-.2 1.55-.22 2.18-1.07 2.12-2.65-.05-1.54-.7-2.39-2.32-2.51-2.39-.17-4.79-.11-7.19-.2-1.89-.07-3.83.32-5.87-.56.13-.77.1-1.59.4-2.28 3.53-8.19 6.62-16.58 10.58-24.84l14.07-.03c4.48 0 8.96-.04 13.44.01 4.61.05 9.23-.24 13.96.23 4.28 8.26 8.06 16.54 12 24.74.26.53.29 1.17.39 1.62-1.15 1.37-2.51 1.02-3.73 1.1-1.75.11-3.52.06-5.26.25-1.39.16-2.04 1.24-1.96 2.82.07 1.34.67 2.11 1.99 2.28 1.26.16 2.55.22 3.83.22 14.88.01 29.76.02 44.63 0 1.43 0 2.9-.04 4.28-.37.58-.14 1.24-1.01 1.4-1.66.49-1.99-.36-3.13-2.27-3.39-.63-.09-1.28-.12-1.91-.12-6.84-.01-5.81.18-8.46-5.55-16.06-34.67-32.05-69.36-48.07-104.04-.6-1.31-1.17-2.64-1.9-3.87-.38-.65-.99-1.33-1.66-1.6-2.66-1.1-5.01-.09-6.27 2.55-.34.72-.63 1.47-.94 2.21-5.84 14.02-11.67 28.03-17.5 42.05-8.77 21.1-17.53 42.21-26.33 63.3-.66 1.58-1.03 3.39-2.62 4.56-4.28 1.13-8.9-.59-13.07 1.15zm285.62-107.89c.05 2.46.11 4.36.12 6.27.01 21.27.01 42.53 0 63.8 0 10.39.01 20.79-.01 31.18 0 1.72.26 3.5-.62 5.47-1.36.13-2.76.28-4.15.4-1.27.11-2.56.11-3.81.31-1.24.2-1.76 1.04-1.79 2.46-.02 1.41.5 2.33 1.72 2.47 1.9.22 3.82.32 5.73.32 28.3.02 56.6.01 84.9.01 1.28 0 2.57.06 3.83-.07 1.07-.11 2.11-.47 3.42-.79.11-1.74.28-3.32.28-4.89.03-9.91.02-19.83.01-29.74 0-1.12-.02-2.24-.16-3.35-.2-1.55-1.03-2.23-2.56-2.28-1.57-.05-2.51.56-2.68 2.1-.29 2.54-.44 5.1-.6 7.65-.28 4.34-1.26 8.53-2.9 12.55-1.29 3.17-3.2 5.89-6.05 7.87-4.15 2.88-8.71 4.87-13.78 5.04-8.15.27-16.3.26-24.46.29-1.03 0-2.06-.49-3.25-.8-.05-2.17-.13-4.08-.13-5.99-.01-31.34-.01-62.68 0-94.02 0-1.12-.04-2.24.04-3.36.07-.92.31-1.82.43-2.53 1.89-1.19 3.69-.77 5.41-.88 1.59-.11 3.19-.11 4.77-.33 1.22-.17 1.74-1.07 1.73-2.48-.01-1.42-.53-2.3-1.74-2.49a27.97 27.97 0 0 0-4.29-.32c-14.55-.02-29.1-.02-43.65-.01-1.28 0-2.56.03-3.83.19-1.56.2-2.2 1.04-2.21 2.61-.01 1.56.63 2.41 2.18 2.62 1.26.16 2.55.12 3.82.22 1.26.1 2.49.28 4.28.5zm143.95 106.4c-.97-1.61-.74-3.4-.75-5.13-.02-31.98-.01-63.95 0-95.93 0-1.28.07-2.56.22-3.82.13-1.07.85-1.71 1.91-1.85.95-.13 1.91-.14 2.87-.2 1.57-.1 3.21.15 4.65-.89.68-1.35.74-2.7-.4-4.38-1.48-.11-3.21-.35-4.93-.35-13.91-.03-27.82-.02-41.73-.01-1.28 0-2.56.04-3.82.21-1.36.18-1.92.82-1.99 2.25-.03.76.2 1.54.29 2.18 3.12 2.05 6.89-.13 10 2.08.05 1.57.13 3.15.14 4.73.01 8.31.01 16.63.01 24.94 0 23.5.01 47-.01 70.51 0 1.88.27 3.81-.4 5.6-3.15 1.73-6.88-.3-10 1.96.1 1.25.19 2.45.31 3.94 1.99.16 3.72.41 5.44.42 13.91.03 27.82.03 41.73 0 1.58 0 3.16-.28 4.74-.49.26-.03.48-.36.84-.66v-3.42c-2.97-1.83-6.3-.15-9.12-1.69zm-579.06-84.11c.68-.1 1.19-.07 1.6-.26 10.62-4.78 19.37-11.72 24.98-22.12 3.53-6.55 4.79-13.53 2.92-20.84-2.09-8.19-6.73-14.26-15.41-15.84-12.92-2.35-22.49 6.47-21.45 18.86.4 4.78 2.65 8.44 6.8 10.91 3.32 1.97 6.86 2.41 10.62 1.78 1.72-.29 3.46-.55 5.2-.62 1.25-.05 2.22.85 2.19 2.05-.03 1.57-.19 3.17-.6 4.68-.69 2.51-2.27 4.55-3.99 6.46-2.69 2.99-5.86 5.41-9.22 7.58-1.34.86-2.72 1.67-4.03 2.58-1.19.83-1.4 1.52-.84 2.88.28.7.83 1.3 1.23 1.9zm153.37 164.13c.75-.69 1.43-1.3 2.1-1.93 6.79-6.46 4.39-17.14-4.56-19.93-2.1-.65-4.38-.9-6.6-1-3.51-.16-7.04-.06-10.55-.04-5.47.03-5.62.15-5.63 5.67-.03 12-.01 23.99-.01 35.99 0 .96-.02 1.92.07 2.88.19 2.18.8 2.89 2.97 2.92 5.28.07 10.57.2 15.83-.1 2.32-.13 4.74-.92 6.83-1.98 7.85-3.98 8.37-14.35 2.94-19.54-1.04-1-2.16-1.88-3.39-2.94zm360.22-23.33c-8.66-.04-15.88 3.81-20.54 12.13-1.5 2.69-2.23 5.62-2.66 8.65-1.76 12.4 5.84 26.92 22.41 27.55 12.04.46 20.22-6.78 23.06-15.88.62-1.97 1.11-4.03 1.26-6.08 1.01-13.59-7.66-25.99-23.53-26.37zm-79.16 29.05c.07-1.43 1.3-1.38 2.03-1.88 1.56-1.08 3.34-1.93 4.66-3.25 2.9-2.9 3.59-6.62 3.36-10.61-.34-5.71-3.23-9.6-8.51-11.56-2.06-.76-4.34-1.15-6.54-1.25-3.98-.2-7.98-.1-11.97-.03-1.05.02-2.1.42-3.27.68-.1 1.51-.26 2.76-.27 4.02-.02 12.61-.02 25.22 0 37.82 0 1.11.07 2.23.22 3.33.12.9.8 1.37 1.65 1.46 2.61.28 3.7-.25 3.71-2.92.02-3.83 0-7.66.04-11.49.01-1.41-.26-2.9.93-4.35.89-.09 1.98-.29 3.07-.29 1.25 0 2.5.16 3.86.27 2.27 3.79 4.48 7.47 6.69 11.16 1.15 1.92 2.22 3.88 3.47 5.73.5.75 1.27 1.58 2.08 1.79 1.49.4 3.13.62 4.55-.36.06-.38.25-.77.13-.99-3.29-5.8-6.62-11.59-9.89-17.28zm-142.95-16.94c-.09-1.33.02-2.16-.23-2.87-1.65-4.8-5.18-7.59-9.99-8.73-3.14-.74-6.36-.68-9.52-.04-6 1.22-10.19 5.67-10.64 11.4-.5 6.3 2.17 10.46 8.52 12.81 2.39.88 4.89 1.46 7.32 2.25 1.82.59 3.69 1.12 5.38 1.99 2.58 1.33 4.1 3.49 4.01 6.55-.09 3.01-1.56 5.23-4.15 6.54-5.25 2.67-12.92 1.3-15.06-4.66-.26-.73-.68-1.4-1.04-2.13-1.85-.33-3.53-.73-5.06.46.16 4.59 1.81 7.77 5.56 9.97 5.93 3.47 12.17 3.66 18.37.88 4.04-1.82 6.37-5.18 7.11-9.61.88-5.23-1.33-10.06-6.12-12.38-2.71-1.31-5.69-2.05-8.54-3.08-2.39-.87-4.95-1.48-7.11-2.76-4.66-2.77-4.61-8.95-.12-11.92 4.26-2.82 11.21-1.66 14.25 2.4.75 1 1.4 2.07 2.16 3.22 1.55-.1 2.94-.18 4.9-.29zm75.55-11.41c-1.23-.1-2.34-.26-3.44-.27-7.52-.02-15.04-.01-22.56-.01-.64 0-1.28 0-1.92.05-1.97.18-2.73.95-2.67 2.64.06 1.61.86 2.32 2.89 2.45 1.28.08 2.56.01 3.84.06 1.73.07 3.5-.25 4.97.39 1.22 1.43 1 2.92 1.02 4.33.04 3.68.02 7.36.02 11.04 0 6.88-.02 13.76.02 20.64.01 1.87-.21 3.83.92 5.41 4.56.55 4.84.36 4.96-3.43.03-1.12.01-2.24.01-3.36 0-9.92-.01-19.84.02-29.76.01-1.56-.35-3.19.68-4.91 3.62-.92 7.53.22 11.13-.74 1.17-1.38 1.08-2.7.11-4.53zm-159.43.3c-.18 1.56-.47 2.96-.47 4.37-.04 12.48-.03 24.95-.01 37.43 0 1.57-.16 3.22 1.11 4.8 1.36.19 2.89.8 4.52-.81.07-1.18.23-2.59.24-4.01.02-12.32.01-24.63.01-36.95 0-.8.02-1.6-.03-2.4-.16-2.46-.64-2.89-3.34-2.91-.46 0-.92.21-2.03.48z"/><path d="M140.51 446.79c-1.42-.2-2.64-.42-3.87-.54-1.27-.12-2.56-.07-3.82-.22-1.58-.19-2.23-1.02-2.22-2.57.01-1.58.67-2.48 2.15-2.68 1.1-.15 2.23-.18 3.35-.18 10.71-.01 21.42-.03 32.13 0 5.36.02 5.64.3 5.64 5.75.02 41.24.01 82.48.02 123.72 0 2.04-.26 4.13.54 6.34 1.12.19 2.18.43 3.25.53 1.43.13 2.88.06 4.3.22 1.54.18 2.21 1.04 2.23 2.59.02 1.56-.63 2.39-2.19 2.59-1.11.14-2.23.18-3.35.18-10.71.01-21.42.02-32.13-.01-1.57 0-3.13-.24-4.32-.34-1.93-1.87-.67-4.07-1.64-5.73-.32.05-.74-.01-.91.16-4.13 4.37-9.3 6.53-15.14 7.54-5.57.97-11.16 1.28-16.68.21-15.21-2.97-25.28-12.29-31.24-26.27-2.46-5.77-3.6-11.88-4.01-18.16-.49-7.53-.35-15.01 1.1-22.43 2.28-11.69 7.49-21.75 17.07-29.1 11.91-9.14 25-10.53 38.9-5.21 3.32 1.27 6.23 3.23 8.68 5.84.62.66 1.27 1.3 2.05 2.09.7-3.86.81-38.77.11-44.32zm.33 80.21h.12c0-7.52-.09-15.04.05-22.55.05-2.74-.8-5.02-2.41-7.07-.98-1.25-2.06-2.46-3.25-3.51-2.35-2.08-5.12-3.1-8.32-3.14-3.9-.05-7.18 1.33-10.04 3.85-3.94 3.48-6.54 7.84-8.18 12.78-1.67 5.02-2.77 10.21-2.9 15.49-.19 7.19-.18 14.39-.01 21.58.13 5.29 1.27 10.46 2.94 15.49 1.33 3.99 3.33 7.62 6.22 10.7 4.37 4.65 9.54 6.13 15.68 4.04 3.23-1.1 5.62-3 6.75-6.28.57-1.66 1.12-3.34 1.47-5.05 1.09-5.33 1.84-10.71 1.88-16.17.03-6.73 0-13.45 0-20.16zM560.71 524.35c1.93.48 2.95.71 3.97.99 5.59 1.54 10.1 4.69 13.71 9.19 3.97 4.95 6.41 10.65 8.38 16.6 1.55 4.7 3.03 9.44 4.77 14.07.95 2.53 2.24 4.95 3.63 7.28 1.85 3.1 4.33 5.53 8.03 6.4 1.09.26 2.17.63 2.56 1.89.62 2.01-.31 3.65-2.4 3.77-3.03.17-6.08.23-9.11.11-6.55-.26-13.06-.86-19.44-2.58-10.04-2.7-17.23-8.78-21.94-17.96-2.35-4.59-3.87-9.44-4.99-14.46-.83-3.74-1.79-7.45-2.79-11.15-.37-1.38-.93-2.73-1.56-4.01-2-4.03-5.32-6.41-9.76-6.87-2.84-.29-5.74-.07-8.62-.01-.42.01-.83.42-1.21.62-.67 4.32-.61 44.08.11 48.18.79.16 1.68.43 2.59.51 1.27.11 2.56.02 3.84.12 3.16.24 3.45.67 3.01 4.64-.75.23-1.62.63-2.51.72-1.43.15-2.87.13-4.31.13-13.28.01-26.56.02-39.84-.01-1.89 0-3.78-.18-5.52-.27-.82-2.32-.82-2.32-.45-4.43 2.68-1.73 5.98-.08 9.1-1.53.19-.84.53-1.88.65-2.95.12-1.11.05-2.24.05-3.36 0-31.2.01-62.4-.01-93.6 0-2.05.26-4.15-.6-6.25-2.78-1.59-6.06-.1-9.17-1.54-.14-.72-.49-1.61-.46-2.5.04-1.41.69-2.07 2.03-2.21 1.27-.14 2.55-.17 3.83-.18 17.12-.01 34.24-.13 51.36.05 9.44.1 18.85.81 28 3.46 4.17 1.21 8.17 2.78 11.85 5.1 9.29 5.87 13.14 14.46 12.59 25.24-.82 15.85-13.6 23.88-24.29 25.86-1.41.27-2.8.52-5.08.94zm-36.58-2.52c7.01.5 13.6-.37 20.08-2.33 6.4-1.94 10.24-6.34 11.94-12.64 1.91-7.09 1.89-14.24-.07-21.32-1.99-7.19-6.57-11.88-13.79-13.99-5.43-1.59-10.96-2.18-16.58-2.02-.59.02-1.17.35-1.66.5-.8 4.27-.78 47.42.08 51.8zM243.54 470.34c-3.55-1.82-7.03-.12-10.1-1.91-.11-.66-.35-1.43-.33-2.2.04-1.44.61-2.11 1.93-2.29 1.26-.17 2.55-.22 3.82-.22 16.48-.01 32.95-.11 49.43.04 7.83.07 15.66.67 23.3 2.59 5.62 1.41 10.95 3.49 15.63 7.04 9.17 6.95 12.44 17.18 9.28 28.65-2.84 10.32-10.3 15.78-20.66 17.55-.78.13-1.59.13-2.09.17 3.22.69 6.76 1.26 10.18 2.25 2.59.75 5.13 1.83 7.5 3.12 9.67 5.25 14.68 13.57 15.22 24.46.61 12.19-4.33 21.36-15.43 26.94-6.53 3.28-13.53 4.88-20.73 5.44-5.73.44-11.5.55-17.25.57-17.6.07-35.19.04-52.79.01-2.21 0-4.42-.21-6.37-.31-1.3-1.63-1.2-2.96-.5-4.4 2.87-1.72 6.33-.06 9.35-1.45.93-1.66.58-3.45.59-5.17.03-13.44.02-26.87.02-40.31v-60.57zm33.55 106.14c.97.18 1.74.45 2.51.44 4.47-.04 8.94-.03 13.39-.28 3.37-.19 6.55-1.34 9.53-2.94 5.16-2.78 8.8-6.89 10.23-12.63 1.89-7.59 1.54-15.17-.73-22.65-1.67-5.5-5.19-9.41-10.31-11.96-5.09-2.54-10.54-3.63-16.15-3.87-2.81-.12-5.69-.45-8.78.44-.16 1.51-.4 2.9-.43 4.29-.57 23.19-.28 44.75.74 49.16zm-.3-59.53c6.25.47 11.78.2 17.13-1.7 5.8-2.05 9.71-6.02 11.53-11.91 2.08-6.75 1.98-13.53-.14-20.26-1.96-6.24-6.19-10.26-12.37-12.33-3.7-1.24-7.52-1.38-11.35-1.38-4.87-.01-5.23.31-5.25 5.1-.04 12.61-.03 25.23 0 37.84.01 1.39.26 2.78.45 4.64zM913.91 532.78h3.46c.32.39.64.61.69.88.3 1.56.65 3.13.78 4.71.55 6.84 2.71 13.15 6.42 18.87 8.01 12.33 19.25 19.91 33.86 22.07 3.6.53 7.38.53 11.01.14 10.4-1.12 17.17-12.05 13.59-21.57-.98-2.61-2.55-4.86-4.74-6.51-2.41-1.82-4.93-3.58-7.63-4.93-6.72-3.35-13.61-6.37-20.36-9.66-6.03-2.94-12-6.01-17.92-9.16-3.26-1.73-6.17-3.99-8.74-6.67-5.09-5.29-7.95-11.52-7.99-18.95-.02-4.01.19-7.97 1.14-11.9 3.47-14.41 15.1-25.23 29.79-27.78 4.95-.86 9.85-.74 14.81-.31 7.22.63 14.17 2.35 20.99 4.7 2.11.73 4.26 1.35 6.43 1.91 2.85.73 4.01 0 4.92-2.91.37-1.2.74-2.4 1.14-3.71 1.12-.07 2.11-.35 2.97-.13.64.16 1.36.88 1.6 1.51.33.86.31 1.88.31 2.83.02 10.24.01 20.48.01 30.71 0 .16 0 .32-.01.48-.18 3.75-.74 4.15-5.15 3.26-.25-1.41-.62-2.95-.78-4.51-.9-8.82-5.27-15.62-12.16-20.94-5.58-4.3-11.94-6.7-18.91-7.55-4.13-.5-8.2-.94-12.39-.03-5.73 1.24-11.22 7.27-11.12 13.85.09 5.83 2.1 10.13 7.05 13.23 4.22 2.64 8.62 4.87 13.17 6.87 7.46 3.28 14.92 6.57 22.37 9.88 6.32 2.8 12.1 6.41 17.42 10.88 5.98 5.03 9.06 11.59 10.16 19 1.02 6.86.23 13.73-2.22 20.31-4.5 12.1-13.41 19.19-25.7 22.24-14 3.47-27.61 1.76-40.86-3.53-3.26-1.3-6.4-2.91-9.59-4.39-2.04-.94-4.07-1.81-6.41-1.75-3.55.09-5.26 1.27-6.37 4.64-.3.9-.55 1.82-.88 2.93-.75.18-1.49.53-2.23.51-2.04-.05-2.61-.6-2.79-2.5-.1-1.11-.1-2.24-.1-3.36-.01-12.64-.02-25.28.01-37.91-.03-1.85-.35-3.81.95-5.75zM793.06 464.67c2.22-1.31 4.34-.94 6.39-.94 21.91-.03 43.83-.02 65.74-.02 11.04 0 22.07-.01 33.11.02 1.89.01 3.85-.3 5.89.9.13.56.45 1.3.45 2.04.03 10.4.02 20.79 0 31.19 0 .62-.2 1.23-.29 1.76-1.37 1.21-2.74.96-4.11.49-1.28-1.34-.95-3.02-.98-4.57-.07-4.35-.82-8.58-1.98-12.75-1.68-6.05-5.55-9.93-11.58-11.68-6.23-1.81-12.58-2.03-18.99-1.48-.29.03-.56.27-1.13.57-.14.7-.39 1.6-.47 2.52-.09 1.11-.05 2.24-.05 3.36v94.05c0 1.91.08 3.82.13 5.99 1.19.31 2.21.75 3.25.8 2.55.13 5.12 0 7.67.13 3.32.17 3.71.87 2.83 4.7-1.6.95-3.39.78-5.13.78-16.79.02-33.59.02-50.38-.01-1.73 0-3.46-.26-5.45-.42-.11-1.5-.19-2.7-.29-4.11 4.51-2.17 9.37-.04 13.96-1.65.15-.91.41-1.82.43-2.74.07-2.4.04-4.8.04-7.2V470.38c-.98-.39-1.69-.89-2.41-.92-5.6-.24-11.18-.16-16.68 1.19-7.01 1.72-11.64 5.85-13.17 13.01-.76 3.58-1.22 7.23-1.77 10.86-.12.78-.04 1.6-.08 2.4-.2 3.52-.44 3.68-4.78 3.1-.18-.66-.55-1.41-.55-2.15-.03-10.56-.02-21.11 0-31.67.02-.43.23-.89.38-1.53zM340.95 577.76c4.18-1.74 8.79-.02 13.04-1.14 1.59-1.17 1.96-2.98 2.62-4.56 8.8-21.09 17.56-42.2 26.33-63.3 5.83-14.02 11.67-28.04 17.5-42.05.31-.74.59-1.49.94-2.21 1.26-2.64 3.61-3.65 6.27-2.55.67.28 1.27.96 1.66 1.6.73 1.23 1.3 2.56 1.9 3.87 16.02 34.68 32.02 69.38 48.07 104.04 2.65 5.72 1.62 5.54 8.46 5.55.64 0 1.28.03 1.91.12 1.91.26 2.75 1.4 2.27 3.39-.16.65-.82 1.52-1.4 1.66-1.38.33-2.85.37-4.28.37-14.88.02-29.75.02-44.63 0-1.28 0-2.56-.06-3.83-.22-1.32-.17-1.92-.94-1.99-2.28-.08-1.58.56-2.66 1.96-2.82 1.74-.2 3.51-.14 5.26-.25 1.23-.08 2.58.27 3.73-1.1-.1-.45-.14-1.08-.39-1.62-3.94-8.2-7.72-16.48-12-24.74-4.73-.48-9.35-.18-13.96-.23-4.48-.05-8.96-.01-13.44-.01l-14.07.03c-3.96 8.26-7.05 16.65-10.58 24.84-.3.69-.27 1.51-.4 2.28 2.04.89 3.98.49 5.87.56 2.4.09 4.8.03 7.19.2 1.62.12 2.27.97 2.32 2.51.05 1.58-.57 2.43-2.12 2.65-1.1.16-2.23.2-3.35.2-8.64.02-17.28.03-25.92-.01-1.58-.01-3.15-.22-4.51-.32-1.27-1.56-1.13-2.89-.43-4.46zm51-73.59c-.28.35-.67.67-.84 1.08-4.87 11.63-9.73 23.27-14.55 34.93-.33.8-.33 1.75-.49 2.62 3.83.72 22.38 1.03 32.32.56.74-.03 1.47-.27 2.27-.42-.07-.73.02-1.25-.17-1.65-5.88-12.23-11.78-24.45-17.7-36.65-.1-.21-.5-.28-.84-.47zM626.57 469.87c-1.79-.22-3.02-.41-4.26-.51-1.27-.11-2.56-.06-3.82-.22-1.55-.2-2.19-1.05-2.18-2.62.01-1.57.65-2.41 2.21-2.61 1.26-.16 2.55-.19 3.83-.19 14.55-.01 29.1-.02 43.65.01 1.43 0 2.87.1 4.29.32 1.21.19 1.73 1.07 1.74 2.49.01 1.41-.52 2.31-1.73 2.48-1.57.22-3.18.23-4.77.33-1.72.11-3.52-.3-5.41.88-.13.71-.36 1.62-.43 2.53-.09 1.11-.04 2.24-.04 3.36v94.02c0 1.91.08 3.81.13 5.99 1.2.31 2.22.8 3.25.8 8.15-.03 16.31-.01 24.46-.29 5.07-.17 9.63-2.16 13.78-5.04 2.85-1.98 4.76-4.7 6.05-7.87 1.64-4.02 2.62-8.2 2.9-12.55.16-2.55.31-5.11.6-7.65.18-1.53 1.11-2.15 2.68-2.1 1.53.05 2.36.73 2.56 2.28.14 1.11.16 2.23.16 3.35.01 9.91.02 19.83-.01 29.74 0 1.57-.18 3.15-.28 4.89-1.31.31-2.35.67-3.42.79-1.27.14-2.55.07-3.83.07-28.3 0-56.6.01-84.9-.01-1.91 0-3.83-.1-5.73-.32-1.22-.14-1.75-1.06-1.72-2.47.02-1.42.54-2.25 1.79-2.46 1.25-.21 2.54-.2 3.81-.31 1.39-.12 2.79-.27 4.15-.4.89-1.97.62-3.75.62-5.47.03-10.39.01-20.79.01-31.18v-63.8c-.03-1.89-.09-3.8-.14-6.26zM770.52 576.27c2.81 1.54 6.15-.14 9.11 1.7v3.42c-.36.29-.58.62-.84.66-1.57.21-3.16.48-4.74.49-13.91.04-27.82.03-41.73 0-1.73 0-3.46-.26-5.44-.42-.12-1.5-.21-2.7-.31-3.94 3.12-2.26 6.85-.23 10-1.96.67-1.79.4-3.72.4-5.6.02-23.5.01-47 .01-70.51 0-8.31.01-16.63-.01-24.94 0-1.58-.09-3.16-.14-4.73-3.11-2.21-6.88-.03-10-2.08-.09-.64-.33-1.41-.29-2.18.06-1.43.63-2.07 1.99-2.25 1.26-.16 2.55-.21 3.82-.21 13.91-.01 27.82-.02 41.73.01 1.73 0 3.45.24 4.93.35 1.14 1.68 1.08 3.03.4 4.38-1.43 1.04-3.07.79-4.65.89-.96.06-1.92.07-2.87.2-1.05.14-1.78.78-1.91 1.85-.15 1.27-.22 2.55-.22 3.82-.01 31.98-.01 63.95 0 95.93.02 1.71-.21 3.5.76 5.12zM191.46 492.16c-.4-.61-.95-1.2-1.23-1.9-.56-1.36-.35-2.06.84-2.88 1.31-.91 2.69-1.72 4.03-2.58 3.37-2.17 6.53-4.59 9.22-7.58 1.72-1.91 3.3-3.95 3.99-6.46.42-1.5.57-3.11.6-4.68.03-1.21-.94-2.11-2.19-2.05-1.74.07-3.48.33-5.2.62-3.76.64-7.3.2-10.62-1.78-4.16-2.47-6.4-6.13-6.8-10.91-1.04-12.39 8.53-21.2 21.45-18.86 8.68 1.58 13.31 7.65 15.41 15.84 1.87 7.31.61 14.29-2.92 20.84-5.61 10.4-14.36 17.34-24.98 22.12-.41.19-.92.16-1.6.26zM344.83 656.29c1.24 1.06 2.36 1.95 3.38 2.93 5.43 5.2 4.91 15.57-2.94 19.54-2.09 1.06-4.51 1.85-6.83 1.98-5.26.3-10.55.16-15.83.1-2.16-.03-2.78-.73-2.97-2.92-.08-.95-.07-1.92-.07-2.88 0-12-.02-23.99.01-35.99.01-5.52.16-5.64 5.63-5.67 3.52-.02 7.04-.12 10.55.04 2.21.1 4.5.34 6.6 1 8.96 2.79 11.36 13.47 4.56 19.93-.66.63-1.34 1.24-2.09 1.94zm-19.08 18.93c3.58.69 6.6.36 9.59.42 1.27.02 2.57.02 3.81-.21 3.98-.73 6.64-3.69 6.88-7.49.23-3.62-1.81-6.78-5.47-8.1-1.47-.53-3.08-.81-4.65-.91-2.38-.15-4.78-.1-7.16-.03-.9.02-1.79.32-2.99.55-.2 5.23-.18 10.27-.01 15.77zm-.01-22.79c.45.45.64.82.9.87 4.26.88 8.55.72 12.78.02 3.04-.5 4.9-2.98 5.21-6.04.48-4.82-2-8.08-6.83-8.52-3-.27-6.04-.14-9.06-.1-.9.01-1.79.32-2.78.51-.6 4.66-.3 9.07-.22 13.26zM705.05 632.96c15.87.38 24.54 12.79 23.54 26.38-.15 2.05-.64 4.11-1.26 6.08-2.85 9.1-11.02 16.33-23.06 15.88-16.58-.63-24.17-15.15-22.41-27.55.43-3.03 1.16-5.96 2.66-8.65 4.64-8.34 11.86-12.18 20.53-12.14zm17.56 23.43c.03-11.68-8.28-19.31-20.47-17.79-5.84.73-10.04 3.94-12.49 9.22-2.92 6.28-2.82 12.68.12 18.95 1.99 4.25 5.31 7.27 9.85 8.44 2.56.66 5.37.68 8.04.54 4.93-.26 8.74-2.74 11.54-6.75 2.45-3.52 3.47-7.48 3.41-12.61zM625.89 662.01c3.26 5.69 6.59 11.48 9.89 17.29.12.22-.07.61-.13.99-1.42.98-3.06.75-4.55.36-.8-.21-1.58-1.05-2.08-1.79-1.24-1.85-2.32-3.81-3.47-5.73-2.21-3.69-4.42-7.38-6.69-11.16-1.36-.1-2.61-.27-3.86-.27-1.09 0-2.18.2-3.07.29-1.19 1.46-.92 2.94-.93 4.35-.04 3.83-.02 7.66-.04 11.49-.01 2.67-1.1 3.2-3.71 2.92-.85-.09-1.53-.57-1.65-1.46-.15-1.1-.22-2.22-.22-3.33-.01-12.61-.02-25.22 0-37.82 0-1.26.16-2.52.27-4.02 1.17-.25 2.22-.66 3.27-.68 3.99-.08 7.99-.17 11.97.03 2.2.11 4.48.49 6.54 1.25 5.28 1.96 8.17 5.85 8.51 11.56.24 3.98-.46 7.71-3.36 10.61-1.32 1.32-3.1 2.17-4.66 3.25-.73.49-1.95.44-2.03 1.87zm-14.03-23.02c-1.2 3.82-1.17 13.55.04 17.14 3.57.66 7.26.61 10.86.12 4.57-.62 7.1-3.53 7.41-8.57.29-4.61-2.49-8.2-7.04-8.8-3.74-.5-7.57-.57-11.27.11zM482.94 645.07c-1.95.11-3.35.2-4.88.29-.77-1.15-1.42-2.22-2.16-3.22-3.03-4.06-9.99-5.22-14.25-2.4-4.5 2.97-4.54 9.16.12 11.92 2.16 1.28 4.71 1.89 7.11 2.76 2.85 1.03 5.83 1.77 8.54 3.08 4.79 2.33 6.99 7.15 6.12 12.38-.74 4.42-3.07 7.79-7.11 9.61-6.2 2.79-12.44 2.59-18.37-.88-3.76-2.2-5.41-5.38-5.56-9.97 1.53-1.18 3.22-.79 5.06-.46.36.73.78 1.4 1.04 2.13 2.13 5.97 9.81 7.33 15.06 4.66 2.59-1.31 4.06-3.53 4.15-6.54.09-3.07-1.43-5.22-4.01-6.55-1.69-.87-3.56-1.4-5.38-1.99-2.43-.79-4.93-1.36-7.32-2.25-6.35-2.34-9.01-6.51-8.52-12.81.45-5.73 4.64-10.18 10.64-11.4 3.16-.64 6.39-.71 9.52.04 4.81 1.14 8.34 3.92 9.99 8.73.23.71.12 1.53.21 2.87zM558.49 633.66c.97 1.83 1.07 3.15-.12 4.54-3.6.96-7.51-.18-11.13.74-1.03 1.72-.68 3.36-.68 4.91-.03 9.92-.02 19.84-.02 29.76 0 1.12.02 2.24-.01 3.36-.12 3.79-.4 3.98-4.96 3.43-1.13-1.58-.91-3.54-.92-5.41-.03-6.88-.01-13.76-.02-20.64 0-3.68.02-7.36-.02-11.04-.02-1.41.2-2.9-1.02-4.33-1.47-.64-3.25-.32-4.97-.39-1.28-.05-2.56.02-3.84-.06-2.03-.13-2.82-.85-2.89-2.45-.07-1.69.7-2.46 2.67-2.64.64-.06 1.28-.05 1.92-.05 7.52 0 15.04-.01 22.56.01 1.11 0 2.22.16 3.45.26zM399.06 633.96c1.11-.27 1.57-.48 2.02-.48 2.7.02 3.18.45 3.34 2.91.05.8.03 1.6.03 2.4 0 12.32.01 24.63-.01 36.95 0 1.41-.16 2.82-.24 4.01-1.63 1.61-3.16 1-4.52.81-1.27-1.58-1.1-3.23-1.11-4.8-.03-12.48-.03-24.95.01-37.43.01-1.41.31-2.81.48-4.37z" class="st0"/><path d="M140.84 527c0 6.72.03 13.43-.01 20.15-.03 5.45-.78 10.84-1.88 16.17-.35 1.71-.9 3.39-1.47 5.05-1.12 3.28-3.52 5.19-6.75 6.28-6.14 2.09-11.32.6-15.68-4.04-2.9-3.08-4.89-6.71-6.22-10.7-1.67-5.03-2.81-10.2-2.94-15.49-.18-7.19-.18-14.39.01-21.58.14-5.29 1.23-10.47 2.9-15.49 1.64-4.94 4.23-9.3 8.18-12.78 2.86-2.52 6.14-3.9 10.04-3.85 3.2.04 5.97 1.06 8.32 3.14 1.19 1.05 2.26 2.26 3.25 3.51 1.61 2.06 2.46 4.34 2.41 7.07-.13 7.52-.05 15.03-.05 22.55-.03.01-.07.01-.11.01zM524.13 521.83c-.86-4.38-.88-47.52-.07-51.8.48-.15 1.06-.49 1.66-.5 5.62-.16 11.15.43 16.58 2.02 7.23 2.11 11.8 6.8 13.79 13.99 1.96 7.08 1.98 14.23.07 21.32-1.7 6.3-5.54 10.7-11.94 12.64-6.49 1.95-13.08 2.83-20.09 2.33zM277.09 576.48c-1.02-4.4-1.32-25.97-.75-49.16.03-1.39.27-2.78.43-4.29 3.09-.88 5.97-.56 8.78-.44 5.61.24 11.06 1.33 16.15 3.87 5.12 2.55 8.64 6.46 10.31 11.96 2.27 7.48 2.62 15.06.73 22.65-1.43 5.74-5.07 9.85-10.23 12.63-2.98 1.6-6.15 2.75-9.53 2.94-4.46.25-8.93.24-13.39.28-.75.01-1.52-.26-2.5-.44zM276.79 516.95c-.18-1.86-.44-3.25-.44-4.64-.03-12.61-.05-25.23 0-37.84.02-4.79.38-5.11 5.25-5.1 3.83.01 7.65.14 11.35 1.38 6.18 2.07 10.4 6.08 12.37 12.33 2.12 6.73 2.22 13.51.14 20.26-1.82 5.89-5.73 9.86-11.53 11.91-5.36 1.89-10.89 2.17-17.14 1.7zM391.95 504.17c.35.18.75.26.85.47 5.92 12.21 11.82 24.42 17.7 36.65.19.39.11.92.17 1.65-.8.15-1.53.38-2.27.42-9.94.46-28.5.16-32.32-.56.15-.87.15-1.82.49-2.62 4.82-11.66 9.68-23.29 14.55-34.93.16-.41.55-.73.83-1.08zM325.75 675.22c-.18-5.5-.2-10.54.01-15.78 1.2-.23 2.09-.53 2.99-.55 2.39-.06 4.78-.12 7.16.03 1.57.1 3.18.38 4.65.91 3.66 1.32 5.7 4.49 5.47 8.1-.24 3.8-2.9 6.76-6.88 7.49-1.24.23-2.54.23-3.81.21-2.99-.05-6.01.28-9.59-.41zM325.74 652.43c-.08-4.19-.38-8.6.23-13.25.99-.19 1.88-.5 2.78-.51 3.02-.04 6.06-.18 9.06.1 4.83.44 7.31 3.7 6.83 8.52-.31 3.06-2.17 5.54-5.21 6.04-4.23.7-8.53.86-12.78-.02-.27-.06-.47-.43-.91-.88zM722.61 656.39c.06 5.13-.96 9.09-3.41 12.6-2.8 4.01-6.61 6.49-11.54 6.75-2.67.14-5.48.12-8.04-.54-4.54-1.17-7.86-4.19-9.85-8.44-2.94-6.26-3.03-12.67-.12-18.95 2.45-5.28 6.65-8.49 12.49-9.22 12.19-1.51 20.51 6.11 20.47 17.8zM611.86 638.99c3.7-.68 7.53-.61 11.28-.11 4.55.6 7.33 4.18 7.04 8.8-.32 5.04-2.84 7.95-7.41 8.57-3.6.49-7.29.55-10.86-.12-1.22-3.59-1.25-13.32-.05-17.14z"/></svg>
